<?xml version="1.0" standalone="no"?>
<!DOCTYPE svg PUBLIC "-//W3C//DTD SVG 20010904//EN"
 "http://www.w3.org/TR/2001/REC-SVG-20010904/DTD/svg10.dtd">
<svg version="1.0" xmlns="http://www.w3.org/2000/svg"
 width="296.000000pt" height="296.000000pt" viewBox="0 0 296.000000 296.000000"
 preserveAspectRatio="xMidYMid meet">
<metadata>
Created by potrace 1.14, written by Peter Selinger 2001-2017
</metadata>
<g transform="translate(0.000000,296.000000) scale(0.100000,-0.100000)"
fill="#000000" stroke="none">
<path d="M1957 2913 c-1 -1 -91 -3 -200 -5 -109 -1 -202 -5 -208 -8 -8 -6 -19
-51 -34 -150 -3 -19 -7 -46 -10 -60 -3 -14 -7 -38 -10 -55 -3 -16 -7 -41 -9
-55 -9 -48 -75 -425 -81 -460 -3 -19 -10 -57 -15 -85 -5 -27 -12 -66 -15 -85
-3 -19 -7 -46 -10 -60 -12 -62 -18 -96 -20 -110 -2 -18 -16 -96 -21 -125 -2
-11 -9 -47 -14 -80 -5 -33 -12 -71 -15 -85 -2 -13 -7 -42 -11 -65 -3 -22 -14
-85 -24 -140 -11 -55 -35 -192 -54 -305 -20 -113 -38 -214 -40 -225 -2 -11 -7
-40 -11 -65 -4 -25 -9 -52 -10 -61 -2 -9 -6 -33 -9 -53 -3 -19 -13 -75 -22
-123 -20 -109 -27 -161 -28 -193 -1 -23 2 -25 54 -28 132 -6 791 -6 845 0 383
46 657 195 794 433 26 45 58 123 65 157 3 13 9 47 15 77 6 29 11 93 11 142 0
191 -62 350 -184 472 -40 40 -88 81 -108 91 l-36 19 52 35 c278 188 391 544
270 853 -86 219 -328 368 -642 395 -64 6 -262 11 -265 7z m283 -292 c128 -35
184 -64 249 -131 108 -111 133 -319 60 -485 -54 -121 -212 -265 -276 -251
-104 23 -187 29 -395 30 -108 1 -200 4 -203 8 -6 6 9 112 30 218 2 13 7 42 10
65 3 22 8 47 10 55 2 8 6 31 9 50 3 19 21 125 41 235 19 110 35 203 35 207 0
17 365 16 430 -1z m-175 -1126 c39 -4 80 -11 93 -16 12 -5 22 -6 22 -4 0 10
137 -47 182 -76 127 -82 192 -219 183 -385 -5 -91 -19 -144 -56 -214 -36 -67
-62 -97 -124 -145 -78 -59 -170 -101 -275 -124 -25 -5 -58 -13 -75 -17 -35 -8
-482 -14 -538 -6 -29 3 -37 8 -33 21 6 17 7 27 32 171 9 52 18 104 20 115 2
11 9 47 14 80 5 33 12 70 15 83 2 13 14 78 25 145 28 163 29 168 35 197 2 14
6 36 9 50 12 73 18 107 22 120 3 13 31 15 191 14 104 0 220 -5 258 -9z"/>
<path d="M1103 2901 c-5 -3 -9 -13 -10 -21 -1 -8 -18 -105 -37 -215 -32 -185
-60 -347 -72 -420 -4 -27 -16 -92 -19 -105 -1 -3 -5 -27 -10 -55 -4 -27 -9
-59 -11 -70 -3 -11 -16 -85 -29 -164 -14 -79 -27 -153 -30 -165 -2 -11 -7 -37
-10 -56 -2 -19 -7 -46 -9 -60 -3 -14 -14 -77 -25 -140 -11 -63 -25 -137 -30
-165 -5 -27 -12 -68 -15 -90 -6 -38 -8 -50 -20 -115 -3 -14 -8 -42 -11 -62 -2
-21 -9 -57 -14 -80 -5 -24 -12 -59 -15 -78 -20 -131 -98 -317 -158 -379 -86
-88 -211 -120 -378 -96 -101 14 -90 24 -121 -115 -29 -129 -34 -169 -21 -171
4 0 14 -2 22 -5 89 -23 248 -33 340 -20 145 21 283 88 375 183 77 79 100 117
181 300 18 40 80 282 88 346 4 26 8 52 11 59 2 7 6 29 9 50 3 20 19 112 35
205 17 92 33 184 36 203 3 19 10 58 15 85 5 28 12 64 15 80 3 17 7 44 10 60 3
17 12 68 20 115 27 147 84 473 90 510 3 19 8 49 11 65 3 17 7 37 9 45 2 8 7
33 10 55 14 86 15 96 19 125 3 16 7 37 10 47 3 10 8 37 11 60 3 23 14 86 25
140 11 62 15 102 9 108 -10 10 -293 16 -306 6z"/>
</g>
</svg>
