<?xml version="1.0" standalone="no"?>
<!DOCTYPE svg PUBLIC "-//W3C//DTD SVG 20010904//EN"
 "http://www.w3.org/TR/2001/REC-SVG-20010904/DTD/svg10.dtd">
<svg version="1.0" xmlns="http://www.w3.org/2000/svg"
 width="1500.000000pt" height="1500.000000pt" viewBox="0 0 1500.000000 1500.000000"
 preserveAspectRatio="xMidYMid meet">
<metadata>
Created by potrace 1.14, written by Peter Selinger 2001-2017
</metadata>
<g transform="translate(0.000000,1500.000000) scale(0.100000,-0.100000)"
fill="#000000" stroke="none">
<path d="M8565 13872 c-489 -94 -1076 -386 -1378 -686 -32 -32 -91 -99 -131
-150 l-73 -91 -164 -52 c-312 -99 -640 -187 -984 -263 -77 -17 -167 -37 -200
-45 -55 -13 -354 -80 -400 -90 -11 -2 -184 -40 -385 -85 -201 -44 -374 -82
-385 -84 -314 -64 -1000 -261 -1170 -336 -11 -5 -49 -21 -85 -35 -154 -62
-349 -166 -445 -238 -183 -136 -272 -240 -342 -399 l-36 -83 -1 -160 c0 -140
2 -167 21 -220 12 -33 32 -94 45 -135 12 -41 35 -101 50 -133 15 -31 28 -59
28 -62 0 -10 108 -187 171 -280 68 -101 229 -306 298 -380 20 -22 84 -92 141
-155 234 -256 279 -290 364 -275 97 19 144 146 85 229 -21 30 -137 163 -179
205 -9 9 -43 48 -75 86 -33 39 -63 72 -66 75 -3 3 -43 52 -88 110 -358 454
-523 889 -418 1097 53 103 205 225 397 316 221 105 804 276 1185 348 28 5 61
11 75 14 25 5 223 41 270 49 14 2 149 27 300 55 151 28 291 53 310 57 19 3 80
14 135 25 55 10 116 21 135 24 19 3 114 21 210 40 96 19 186 36 200 39 46 8
404 87 460 101 30 8 66 16 80 18 14 3 54 13 90 22 36 9 76 19 90 21 14 3 33 7
43 10 19 6 21 -3 7 -61 -5 -22 -12 -62 -16 -90 -3 -27 -8 -59 -10 -70 -2 -11
-7 -40 -10 -65 -3 -25 -9 -72 -14 -105 -9 -56 -5 -623 5 -745 7 -91 14 -166
19 -196 2 -16 7 -56 11 -89 4 -33 8 -73 11 -90 2 -16 11 -84 19 -150 8 -66 17
-131 20 -145 3 -14 7 -41 9 -60 4 -33 32 -216 42 -270 2 -14 11 -65 19 -115 9
-49 18 -103 21 -120 4 -24 29 -158 50 -270 2 -11 8 -45 14 -75 6 -30 12 -66
15 -80 3 -13 11 -63 20 -110 8 -47 17 -96 20 -110 5 -25 23 -123 31 -170 3
-14 12 -63 20 -110 9 -47 18 -95 20 -107 2 -13 6 -35 9 -50 19 -97 32 -80
-122 -158 -76 -38 -185 -95 -243 -126 -58 -31 -179 -95 -270 -144 -459 -244
-634 -349 -1060 -630 -412 -272 -701 -484 -996 -730 -33 -27 -80 -66 -104 -85
-184 -147 -444 -395 -620 -590 -41 -46 -80 -88 -85 -94 -89 -95 -243 -295
-317 -411 -233 -365 -328 -682 -293 -976 8 -71 52 -234 76 -283 10 -22 19 -43
19 -48 0 -15 83 -144 135 -209 243 -302 679 -538 1215 -659 109 -24 169 -34
285 -46 33 -3 80 -8 105 -10 85 -10 555 -12 630 -3 229 25 298 37 500 85 440
106 829 305 1090 558 282 273 465 533 623 886 65 144 163 452 193 605 3 18 26
122 29 135 1 3 5 30 9 60 5 30 10 62 11 70 2 8 6 44 10 80 4 36 8 78 10 95 10
76 18 252 18 365 0 139 -12 484 -18 521 -2 13 -6 60 -10 104 -4 44 -9 89 -11
100 -3 19 -10 79 -19 160 -4 37 -79 482 -89 531 -2 12 -7 37 -10 55 -8 47 -24
138 -37 207 -5 31 -12 69 -15 84 -5 26 -1 28 178 98 500 197 957 344 1583 509
149 39 812 197 910 217 11 2 63 13 115 24 95 20 227 48 265 56 19 4 96 18 160
29 17 2 41 7 54 10 12 2 42 7 65 9 195 25 265 44 338 93 28 19 86 21 257 9
255 -19 421 -73 536 -174 52 -46 74 -80 69 -106 -6 -33 -72 -121 -116 -158
-23 -18 -46 -37 -52 -43 -48 -43 -157 -108 -296 -176 -164 -81 -432 -209 -435
-209 -2 0 -56 -25 -121 -56 -198 -93 -231 -108 -759 -339 -501 -219 -911 -400
-1030 -455 -33 -16 -112 -52 -175 -80 -323 -147 -727 -371 -860 -478 -133
-108 -192 -201 -196 -310 -6 -162 91 -263 281 -295 97 -16 225 -14 520 8 33 3
94 7 135 10 41 3 93 7 115 9 22 2 69 7 105 10 36 4 79 9 96 11 17 2 60 7 95
10 35 3 75 8 89 10 14 2 54 7 90 10 35 3 79 8 97 10 18 3 48 7 66 9 62 9 422
46 492 51 39 2 99 7 135 10 273 23 416 30 625 30 182 -1 380 -9 430 -19 11 -2
47 -7 80 -10 80 -9 128 -23 200 -56 169 -77 201 -224 110 -496 -57 -172 -188
-404 -317 -565 -132 -164 -290 -335 -404 -438 -27 -24 -71 -65 -99 -91 -373
-347 -936 -795 -1365 -1086 -25 -17 -103 -72 -175 -121 -71 -50 -229 -152
-350 -226 -223 -136 -632 -377 -641 -377 -2 0 -21 -10 -42 -23 -20 -13 -71
-42 -112 -64 -42 -23 -152 -83 -245 -135 -94 -52 -195 -108 -225 -125 -268
-147 -458 -254 -585 -328 -82 -49 -159 -93 -170 -99 -11 -6 -31 -18 -45 -27
-14 -9 -99 -60 -190 -114 -237 -141 -1046 -681 -1116 -746 -41 -38 -76 -118
-82 -184 -7 -97 18 -165 89 -236 70 -70 123 -90 221 -84 74 5 123 25 243 103
214 138 647 407 1070 665 233 143 956 577 960 577 2 0 353 209 385 230 8 5 44
27 80 48 114 69 345 211 355 219 6 5 28 19 50 33 83 49 564 375 610 413 6 4
71 51 145 104 180 127 602 455 695 540 11 10 52 45 90 78 39 33 72 63 75 66 3
3 28 25 55 49 145 124 174 149 220 190 121 108 511 495 575 570 12 14 41 45
64 70 190 203 421 531 531 755 77 156 147 339 144 375 0 3 4 17 10 32 10 27
22 126 25 208 3 73 -15 194 -40 268 -34 101 -127 238 -217 317 -122 107 -343
199 -532 219 -22 3 -69 8 -105 11 -36 4 -73 9 -84 11 -119 23 -568 22 -801 -1
-132 -14 -264 -30 -410 -50 -55 -8 -120 -17 -145 -20 -25 -3 -70 -10 -100 -15
-30 -5 -75 -12 -100 -15 -25 -3 -56 -7 -70 -10 -14 -2 -45 -7 -70 -10 -25 -3
-70 -10 -100 -15 -30 -5 -77 -12 -105 -15 -27 -4 -57 -8 -65 -10 -8 -3 -40 -7
-70 -10 -30 -3 -62 -8 -70 -10 -8 -2 -37 -7 -65 -10 -27 -3 -66 -7 -85 -10
-107 -15 -140 -17 -140 -11 0 6 752 382 1050 524 58 27 213 102 344 166 131
64 260 126 285 138 137 62 787 388 1131 568 89 46 245 149 362 237 161 121
234 202 293 323 l36 75 -4 111 c-4 104 -7 116 -44 195 -92 197 -345 373 -623
435 -163 37 -212 42 -402 47 -54 1 -98 5 -98 9 0 4 -22 29 -48 56 -74 75 -128
92 -277 87 -66 -3 -133 -7 -150 -9 -16 -3 -55 -7 -85 -10 -54 -6 -100 -11
-170 -21 -19 -2 -57 -7 -85 -10 -27 -4 -57 -8 -65 -10 -8 -2 -35 -7 -60 -10
-177 -23 -653 -133 -990 -229 -697 -197 -1170 -361 -1818 -628 -69 -28 -127
-47 -132 -42 -4 5 -22 74 -40 154 -41 187 -39 180 -45 215 -3 17 -8 38 -11 47
-3 9 -7 27 -9 39 -11 57 -48 232 -66 314 -11 50 -43 198 -70 330 -52 249 -55
264 -63 305 -2 14 -7 36 -10 50 -3 14 -8 36 -10 50 -3 14 -11 61 -20 105 -8
44 -18 98 -21 120 -3 23 -7 52 -10 65 -2 13 -9 60 -15 104 -6 45 -13 92 -15
106 -3 14 -12 81 -20 150 -9 69 -18 135 -20 148 -8 47 -19 311 -19 452 0 134
3 192 20 325 9 75 50 253 71 309 l18 50 155 54 c85 30 169 60 185 67 17 7 59
23 95 35 36 11 79 27 95 34 17 8 66 29 110 47 145 59 610 306 740 392 126 84
269 214 323 294 55 80 68 179 34 256 -26 58 -100 133 -156 158 -46 20 -175 32
-231 21z m-1345 -5782 c7 -47 14 -94 16 -105 6 -29 43 -293 49 -345 5 -49 11
-111 20 -235 4 -44 8 -91 10 -104 12 -75 19 -248 20 -491 0 -300 -6 -410 -29
-570 -15 -100 -19 -122 -31 -180 -2 -14 -7 -41 -10 -60 -62 -380 -226 -781
-418 -1025 -213 -270 -372 -403 -652 -543 -171 -85 -408 -158 -610 -187 -27
-4 -59 -9 -70 -11 -10 -2 -49 -6 -85 -9 -36 -3 -87 -8 -115 -10 -63 -6 -396
-6 -450 0 -22 2 -67 7 -100 10 -113 11 -290 44 -405 75 -414 111 -734 306
-876 533 -168 269 -73 655 257 1049 184 220 429 464 614 613 28 21 52 42 55
45 7 8 171 141 210 170 18 14 38 30 44 35 17 15 211 157 357 259 94 67 457
309 509 340 25 15 68 41 95 58 28 17 64 39 80 48 17 10 93 56 170 102 129 78
164 99 280 163 22 12 63 35 90 50 177 99 865 435 935 457 17 6 22 -9 40 -132z"/>
</g>
</svg>
